<svg version="1" xmlns="http://www.w3.org/2000/svg" width="34.665" height="25.943" viewBox="0 0 34.665 25.943"><switch><g><path opacity=".41" fill="#47D6C7" d="M34.664 10.885c.043-3.859-2.018-6.811-5.6-6.85-1.857-.021-3.543.803-4.74 2.139a.184.184 0 0 1-.281-.004c-1.168-1.361-2.832-2.225-4.691-2.246-3.582-.039-5.306 3.07-5.35 6.93a7.36 7.36 0 0 0 .854 3.549s2.198 4.181 2.755 8.645c.084.666.762 2.166 1.285 2.402 1.477.672 2.619-.336 2.762-1.952.15-1.714 1.139-5.789 2.256-6.415a.207.207 0 0 1 .172-.012c1.362.488 2.574 4.658 2.635 6.486.055 1.639.762 2.854 2.27 2.211.529-.228.816-.709.963-1.365.846-3.803 3.766-9.869 3.82-9.982.002-.005-.002.002 0-.002.026-.069.875-2.26.89-3.534z"/><path fill="none" stroke="#1A75CF" stroke-width="1.918" stroke-linecap="round" stroke-linejoin="round" stroke-miterlimit="10" d="M31.664 8.885c.043-3.859-2.018-6.811-5.6-6.85-1.857-.021-3.543.803-4.74 2.139a.184.184 0 0 1-.281-.004c-1.168-1.361-2.832-2.225-4.691-2.246-3.582-.039-5.307 3.07-5.35 6.93a7.36 7.36 0 0 0 .854 3.549s2.198 4.181 2.755 8.645c.083.666.761 2.166 1.285 2.402 1.477.672 2.62-.336 2.762-1.952.15-1.714 1.139-5.789 2.256-6.415a.207.207 0 0 1 .172-.012c1.362.488 2.574 4.658 2.635 6.486.055 1.639.762 2.854 2.27 2.211.529-.228.816-.709.963-1.365.846-3.803 3.766-9.869 3.82-9.982.002-.004-.002.002 0-.002.026-.069.875-2.26.89-3.534z"/><g><path fill="none" stroke="#1A75CF" stroke-width="3.048" stroke-linecap="round" stroke-linejoin="round" stroke-miterlimit="10" d="M1.524 17.143l6-6"/><circle opacity=".4" fill="#DA4980" cx="11.81" cy="6.856" r="5.714"/><circle fill="none" stroke="#DA4980" stroke-width="2.286" stroke-linejoin="round" stroke-miterlimit="10" cx="11.81" cy="6.856" r="5.714"/></g></g></switch></svg>