<svg xmlns="http://www.w3.org/2000/svg" width="31.975" height="35" viewBox="0 0 31.975 35"><path opacity=".41" fill="#47D6C7" d="M31.528 15.352c.057-4.855-2.538-8.566-7.045-8.618-2.341-.026-4.457 1.011-5.965 2.692a.232.232 0 0 1-.354-.004c-1.468-1.716-3.566-2.8-5.905-2.826-4.506-.051-6.674 3.861-6.73 8.717a9.26 9.26 0 0 0 1.075 4.465s2.765 5.263 3.466 10.879c.104.836.958 2.724 1.615 3.022 1.86.843 3.298-.422 3.476-2.455.19-2.159 1.435-7.285 2.84-8.072a.258.258 0 0 1 .217-.018c1.714.615 3.239 5.864 3.315 8.161.067 2.063.96 3.592 2.854 2.783.665-.285 1.027-.893 1.212-1.716 1.064-4.787 4.736-12.418 4.807-12.561l.002-.005c.034-.084 1.102-2.84 1.12-4.444z"/><path fill="#1A75CF" d="M19.657 33.092c-1.481 0-3.104-1.12-3.207-4.269-.067-2.057-1.15-5.227-1.986-6.475-.711 1.326-1.59 4.415-1.772 6.476-.203 2.304-1.702 3.915-3.649 3.915-.551 0-1.114-.13-1.672-.384-1.308-.592-2.257-3.109-2.375-4.053-.665-5.317-3.298-10.38-3.325-10.431A10.595 10.595 0 0 1 .446 12.78C.515 6.699 3.635 2.77 8.399 2.77a9.249 9.249 0 0 1 6.186 2.454c1.696-1.501 3.803-2.317 6.042-2.317 2.673.03 4.834 1.071 6.35 3.012 1.398 1.788 2.119 4.186 2.089 6.932-.021 1.661-.923 4.158-1.2 4.884-.017.041-.037.094-.056.131-.006.01-.012.018-.014.027-.47.98-3.72 7.871-4.688 12.238-.294 1.314-.958 2.201-1.976 2.637-.508.214-1.004.324-1.475.324zm-5.305-13.798c.187 0 .369.032.543.095 2.731.98 4.112 7.433 4.175 9.347.033 1.04.331 1.736.587 1.736.064 0 .208-.015.444-.114.082-.037.298-.129.445-.794 1.049-4.722 4.508-12.016 4.897-12.832l.021-.04c.456-1.217.969-2.958.979-3.872.024-2.114-.521-3.993-1.534-5.288-1.009-1.292-2.466-1.984-4.214-2.004h-.001c-1.929 0-3.671.802-4.977 2.256-.598.667-1.748.653-2.327-.029-1.286-1.502-3.034-2.343-4.919-2.364-4.943 0-5.386 5.68-5.405 7.421a7.986 7.986 0 0 0 .921 3.837c.12.228 2.887 5.545 3.611 11.33.063.526.66 1.794.966 2.056.106.034.304.084.479.084.625 0 .973-.765 1.04-1.523.103-1.168 1.188-7.806 3.506-9.102.195-.109.539-.2.763-.2z"/><path fill="#DA4980" d="M26.096 4.822l4.184.256c.488.029.619.687.182.901l-3.875 1.904a.471.471 0 0 0-.267.424l-.026 3.908c-.003.504-.689.656-.905.2L23.71 8.887a.48.48 0 0 0-.422-.271l-4.187-.081c-.498-.01-.649-.679-.206-.901l3.567-1.79a.482.482 0 0 0 .265-.405l.171-4.28c.019-.487.667-.634.896-.204l1.911 3.613c.075.15.225.243.391.254z"/></svg>