<svg xmlns="http://www.w3.org/2000/svg" width="30" height="27.75" viewBox="0 0 30 27.75"><path opacity=".41" fill="#47D6C7" d="M27.965 11.303c.043-3.859-2.018-6.811-5.6-6.85-1.857-.021-3.543.803-4.74 2.139a.185.185 0 0 1-.281-.003c-1.168-1.362-2.833-2.226-4.691-2.247-3.582-.039-5.307 3.07-5.35 6.93a7.36 7.36 0 0 0 .854 3.549s2.198 4.182 2.755 8.645c.083.666.761 2.166 1.285 2.402 1.477.672 2.62-.336 2.762-1.951.15-1.715 1.139-5.789 2.256-6.416a.207.207 0 0 1 .172-.012c1.363.488 2.574 4.658 2.635 6.486.055 1.639.762 2.854 2.27 2.211.529-.227.816-.709.963-1.365.846-3.803 3.766-9.869 3.82-9.982.002-.004-.002.002 0-.002.027-.069.876-2.261.89-3.534z"/><path fill="none" stroke="#1A75CF" stroke-width="1.918" stroke-linecap="round" stroke-linejoin="round" stroke-miterlimit="10" d="M24.965 9.303c.043-3.859-2.018-6.811-5.6-6.85-1.857-.021-3.543.803-4.74 2.139a.186.186 0 0 1-.282-.003c-1.167-1.362-2.832-2.226-4.69-2.247-3.582-.039-5.307 3.07-5.35 6.93a7.36 7.36 0 0 0 .854 3.549s2.198 4.182 2.755 8.645c.083.666.761 2.166 1.285 2.402 1.477.672 2.62-.336 2.762-1.951.15-1.715 1.14-5.789 2.257-6.416a.205.205 0 0 1 .171-.012c1.364.488 2.575 4.658 2.635 6.486.055 1.639.762 2.854 2.27 2.211.529-.227.816-.709.963-1.365.846-3.803 3.766-9.869 3.82-9.982.002-.004-.002.002 0-.002.027-.069.876-2.261.89-3.534z"/><path fill="#DA4980" d="M16.973 13.561h-4.294a.857.857 0 0 1-.853-.854V8.412c0-.469.384-.851.853-.851h4.294c.469 0 .853.382.853.851v4.294a.858.858 0 0 1-.853.855z"/><path fill="#FFF" d="M16.113 12.359h-2.576a.513.513 0 0 1-.512-.511V9.271c0-.281.23-.511.512-.511h2.576c.281 0 .512.23.512.511v2.577c0 .281-.23.511-.512.511z"/><path fill="none" stroke="#DA4980" stroke-width="2" stroke-linecap="round" stroke-miterlimit="10" d="M11.825 10.561h-9M26.825 10.561h-9"/></svg>