<svg xmlns="http://www.w3.org/2000/svg" width="49.17" height="39.46" viewBox="0 0 49.17 39.46"><defs><style>.cls-1{fill:#47d6c7;opacity:.41}.cls-2,.cls-4,.cls-7{fill:none}.cls-2{stroke:#1a75cf;stroke-linecap:round;stroke-linejoin:round;stroke-width:2.89px}.cls-3,.cls-6{fill:#da4980}.cls-3{opacity:.6}.cls-4,.cls-7{stroke:#da4980;stroke-miterlimit:10}.cls-4{stroke-width:2px}.cls-5{fill:#fff}.cls-6{opacity:.4}.cls-7{stroke-width:3px}.cls-8{fill:#1a75cf}</style></defs><title>dentista_crianca</title><g id="Layer_2" data-name="Layer 2"><g id="Checkout"><path class="cls-1" d="M49.17 15c.07-5.82-3-10.27-8.45-10.33a9.44 9.44 0 0 0-7.15 3.23.28.28 0 0 1-.42 0 9.45 9.45 0 0 0-7.08-3.39c-5.4-.06-8 4.63-8.07 10.45a11.12 11.12 0 0 0 1.29 5.36 43.84 43.84 0 0 1 4.16 13c.13 1 1.15 3.27 1.94 3.62 2.23 1 4-.51 4.17-2.94.23-2.59 1.72-8.73 3.41-9.68a.31.31 0 0 1 .26 0c2.06.74 3.89 7 4 9.79.08 2.47 1.15 4.31 3.42 3.34a2.66 2.66 0 0 0 1.45-2.06c1.28-5.74 5.68-14.89 5.76-15.06A20.69 20.69 0 0 0 49.17 15z"/><path class="cls-2" d="M44.64 11.95c.07-5.82-3-10.27-8.45-10.33A9.44 9.44 0 0 0 29 4.84a.28.28 0 0 1-.42 0 9.45 9.45 0 0 0-7.08-3.39c-5.4-.06-8 4.63-8.07 10.45a11.12 11.12 0 0 0 1.29 5.36 43.84 43.84 0 0 1 4.16 13c.13 1 1.15 3.27 1.94 3.62 2.23 1 4-.51 4.17-2.94.23-2.59 1.72-8.73 3.41-9.68a.31.31 0 0 1 .26 0c2.06.74 3.89 7 4 9.79.08 2.47 1.15 4.31 3.42 3.34a2.66 2.66 0 0 0 1.45-2.06c1.28-5.74 5.68-14.89 5.76-15.06a20.69 20.69 0 0 0 1.35-5.32z"/><path class="cls-3" d="M32.67 10.6a4 4 0 0 0-2.62 1h-2.76a4 4 0 1 0 0 6H30a4 4 0 1 0 2.62-7z"/><path class="cls-4" d="M32.67 10.6a4 4 0 0 0-2.62 1h-2.76a4 4 0 1 0 0 6H30a4 4 0 1 0 2.62-7z"/><circle class="cls-5" cx="28.67" cy="14.6" r="2"/><rect class="cls-6" x="8.3" y="22.35" width="9.37" height="16.87" rx="1.46" ry="1.46" transform="rotate(-45 12.984 30.792)"/><rect class="cls-7" x="8.92" y="19.47" width="9.37" height="16.87" rx="1.46" ry="1.46" transform="rotate(-45 13.612 27.912)"/><path class="cls-4" d="M7.67 17.6H4.43l-1.35-1.35A1.22 1.22 0 1 0 1.36 18l1.34 1.32-.08 3.33"/><rect class="cls-8" x=".89" y="19.12" width="10.23" height="3.09" rx="1.55" ry="1.55" transform="rotate(-45 6.003 20.673)"/></g></g></svg>