<svg version="1" xmlns="http://www.w3.org/2000/svg" width="24.663" height="22.178" viewBox="0 0 24.663 22.178"><switch><g><path opacity=".41" fill="#47D6C7" d="M5.214 14.219h18.219c.199-.432.328-.699.338-.723.003-.004 0 .002.002-.002.027-.068.875-2.26.891-3.533.043-3.859-2.018-6.811-5.6-6.85-1.858-.021-3.543.803-4.74 2.139a.184.184 0 0 1-.281-.004C12.874 3.885 11.209 3.022 9.351 3 5.769 2.961 4.044 6.071 4 9.93a7.36 7.36 0 0 0 .854 3.549s.142.268.36.74z"/><path fill="none" stroke="#1A75CF" stroke-width="2" stroke-linecap="round" stroke-linejoin="round" stroke-miterlimit="10" d="M2.214 12.219h18.219c.199-.432.328-.699.338-.723.003-.004 0 .002.002-.002.027-.068.875-2.26.891-3.533.043-3.859-2.018-6.811-5.6-6.85-1.858-.021-3.543.803-4.74 2.139a.185.185 0 0 1-.282-.004C9.875 1.885 8.209 1.022 6.351 1 2.769.961 1.044 4.071 1 7.93a7.36 7.36 0 0 0 .854 3.549s.142.268.36.74z"/><path fill="none" stroke="#1A75CF" stroke-width="1.918" stroke-linecap="round" stroke-linejoin="round" stroke-miterlimit="10" d="M11.523 13.219v8"/><path fill="none" stroke="#DA4980" stroke-width="1.918" stroke-linecap="round" stroke-linejoin="round" stroke-miterlimit="10" d="M6.523 15.219h9.999M8.523 18.219h5.999M10.523 21.219h1.999"/></g></switch></svg>