<svg version="1" xmlns="http://www.w3.org/2000/svg" width="32.857" height="28.705" viewBox="0 0 32.857 28.705"><switch><g><path opacity=".41" fill="#47D6C7" d="M24.622 13.647c.043-3.859-2.018-6.811-5.6-6.85-1.857-.021-3.543.803-4.74 2.139A.185.185 0 0 1 14 8.932c-1.167-1.361-2.832-2.225-4.69-2.246-3.582-.039-5.307 3.07-5.35 6.93a7.357 7.357 0 0 0 .854 3.548s2.198 4.182 2.755 8.645c.083.666.761 2.166 1.285 2.402 1.477.672 2.62-.336 2.762-1.951.15-1.715 1.139-5.789 2.257-6.416a.205.205 0 0 1 .171-.012c1.362.488 2.574 4.658 2.635 6.486.055 1.639.762 2.854 2.27 2.211.529-.227.816-.709.963-1.365.846-3.803 3.766-9.869 3.819-9.982l.001-.002c.026-.069.875-2.26.89-3.533z"/><path fill="none" stroke="#1A75CF" stroke-width="1.918" stroke-linecap="round" stroke-linejoin="round" stroke-miterlimit="10" d="M21.622 11.647c.043-3.859-2.018-6.811-5.6-6.85-1.858-.021-3.542.803-4.74 2.139A.185.185 0 0 1 11 6.932C9.833 5.571 8.168 4.708 6.31 4.686c-3.582-.039-5.307 3.07-5.35 6.93a7.357 7.357 0 0 0 .854 3.548s2.198 4.182 2.755 8.645c.083.666.761 2.166 1.285 2.402 1.477.672 2.62-.336 2.762-1.951.15-1.715 1.139-5.789 2.257-6.416a.205.205 0 0 1 .171-.012c1.362.488 2.575 4.658 2.635 6.486.055 1.639.762 2.854 2.269 2.211.529-.227.816-.709.963-1.365.846-3.803 3.766-9.869 3.819-9.982l.001-.002c.027-.069.876-2.26.891-3.533z"/><g><path fill="none" stroke="#DA4980" stroke-width="2.286" stroke-linecap="round" stroke-linejoin="round" stroke-miterlimit="10" d="M26.124 5.637l3.714-1.887M31.713 5.602L29.45 1.143"/><path fill="none" stroke="#DA4980" stroke-linecap="round" stroke-linejoin="round" stroke-miterlimit="10" d="M11.265 13.184l-3.344 1.699"/><path fill="#FFF" stroke="#1A75CF" stroke-width="1.918" stroke-linecap="round" stroke-linejoin="round" stroke-miterlimit="10" d="M25.473 4.356l1.302 2.563a1.06 1.06 0 0 1-.466 1.427l-12.222 6.209a1.063 1.063 0 0 1-1.429-.467l-1.302-2.562a1.061 1.061 0 0 1 .466-1.428l12.222-6.209a1.064 1.064 0 0 1 1.429.467z"/><path opacity=".4" fill="#DA4980" d="M14.046 8.967s7.436 1.77 9.436.77l-10 5-2-4 3-2"/><path fill="none" stroke="#1A75CF" stroke-linecap="round" stroke-linejoin="round" stroke-miterlimit="10" d="M17.854 13.149l-1.132-2.229M20.284 11.375l-1.131-2.228"/><path fill="none" stroke="#1A75CF" stroke-width="1.918" stroke-linecap="round" stroke-linejoin="round" stroke-miterlimit="10" d="M25.473 4.356l1.302 2.563a1.06 1.06 0 0 1-.466 1.427l-12.222 6.209a1.063 1.063 0 0 1-1.429-.467l-1.302-2.562a1.061 1.061 0 0 1 .466-1.428l12.222-6.209a1.064 1.064 0 0 1 1.429.467z"/></g></g></switch></svg>